<?xml version="1.0" standalone="no"?>
<!DOCTYPE svg PUBLIC "-//W3C//DTD SVG 20010904//EN"
 "http://www.w3.org/TR/2001/REC-SVG-20010904/DTD/svg10.dtd">
<svg version="1.0" xmlns="http://www.w3.org/2000/svg"
 width="766.000000pt" height="766.000000pt" viewBox="0 0 766.000000 766.000000"
 preserveAspectRatio="xMidYMid meet">
<metadata>
Created by potrace 1.14, written by Peter Selinger 2001-2017
</metadata>
<g transform="translate(0.000000,766.000000) scale(0.100000,-0.100000)"
fill="#000000" stroke="none">
<path d="M6683 6844 c-23 -10 -33 -11 -33 -3 0 8 -5 8 -15 -1 -8 -7 -27 -14
-42 -16 -16 -1 -40 -5 -55 -8 -16 -3 -40 -8 -55 -11 -14 -2 -29 -8 -32 -12 -3
-4 -22 -9 -41 -10 -56 -4 -70 -7 -70 -13 0 -3 -10 -6 -22 -7 -30 -2 -71 -11
-105 -24 -16 -6 -29 -10 -31 -10 -10 4 -82 -13 -82 -19 0 -4 -11 -6 -25 -5
-14 2 -25 0 -25 -4 0 -4 -8 -8 -17 -9 -21 -2 -57 -10 -60 -12 -2 -2 -6 -3 -10
-4 -5 -1 -12 -4 -18 -7 -5 -4 -18 -5 -27 -4 -10 2 -18 -1 -18 -6 0 -6 -4 -7
-10 -4 -5 3 -10 2 -10 -4 0 -6 -7 -8 -15 -5 -8 4 -15 2 -15 -3 0 -5 -8 -10
-17 -11 -44 -4 -62 -9 -76 -20 -7 -7 -17 -9 -20 -6 -3 3 -12 2 -19 -2 -7 -5
-22 -10 -33 -11 -10 -2 -22 -7 -25 -12 -3 -4 -13 -7 -22 -5 -10 1 -18 -1 -18
-4 0 -4 -17 -12 -37 -19 -21 -6 -51 -17 -68 -23 -16 -6 -32 -12 -35 -12 -3 -1
-24 -12 -46 -24 -23 -13 -44 -20 -48 -17 -3 4 -6 0 -6 -7 0 -7 -3 -10 -6 -7
-4 4 -19 -2 -34 -13 -16 -11 -31 -20 -35 -20 -4 0 -14 -8 -22 -17 -8 -10 -11
-11 -7 -3 5 8 -16 -5 -46 -29 -30 -24 -54 -47 -53 -52 2 -5 -2 -9 -7 -9 -13 0
-96 -83 -92 -92 1 -5 -5 -8 -13 -8 -8 0 -15 -4 -15 -8 0 -4 -30 -40 -67 -79
-122 -129 -163 -175 -163 -185 0 -5 -4 -6 -10 -3 -5 3 -10 1 -10 -5 0 -6 -12
-23 -27 -37 -16 -14 -27 -29 -25 -34 1 -5 -5 -9 -15 -9 -9 0 -14 -3 -10 -6 3
-3 -12 -24 -34 -45 -22 -21 -38 -39 -35 -39 3 0 -5 -10 -17 -23 -12 -13 -26
-21 -31 -19 -5 3 -6 0 -2 -6 3 -6 -8 -22 -26 -37 -18 -15 -27 -24 -19 -20 8 5
-9 -16 -37 -45 -28 -29 -48 -58 -45 -64 3 -6 3 -8 -2 -4 -6 6 -34 -20 -82 -76
-6 -8 -9 -17 -6 -20 4 -3 -1 -6 -10 -6 -10 0 -17 -7 -17 -16 0 -8 -5 -12 -10
-9 -6 3 -13 -2 -17 -12 -3 -10 -20 -30 -36 -45 -17 -16 -28 -28 -24 -28 4 0
-7 -13 -25 -30 -17 -16 -28 -30 -25 -30 3 0 -14 -20 -39 -45 -24 -25 -42 -45
-39 -45 3 0 -3 -8 -12 -18 -10 -11 -21 -17 -25 -15 -5 2 -8 -2 -8 -9 0 -7 -21
-36 -48 -63 -26 -28 -65 -72 -87 -99 -22 -27 -48 -56 -57 -65 -10 -8 -18 -21
-18 -28 0 -7 -7 -13 -16 -13 -8 0 -12 -4 -9 -10 3 -5 -1 -10 -10 -10 -9 0 -14
-4 -10 -9 3 -5 -4 -16 -16 -25 -13 -9 -18 -19 -14 -27 5 -7 4 -10 -3 -5 -6 3
-17 -3 -25 -14 -8 -11 -24 -20 -38 -19 -32 2 -156 -9 -193 -17 -16 -3 -45 -8
-65 -9 -20 -2 -36 -4 -36 -5 0 -1 -11 -4 -25 -6 -30 -4 -61 -9 -115 -19 -22
-4 -46 -7 -52 -8 -7 0 -13 -3 -13 -7 0 -4 -13 -7 -29 -8 -17 0 -38 -5 -49 -11
-11 -6 -22 -8 -25 -4 -4 3 -13 0 -21 -6 -8 -7 -20 -10 -26 -6 -5 3 -10 1 -10
-6 0 -7 -3 -9 -7 -6 -3 4 -13 1 -21 -6 -13 -9 -14 -9 -8 0 4 8 -12 5 -40 -7
-26 -12 -54 -22 -63 -23 -9 -1 -22 -6 -28 -10 -7 -5 -17 -6 -22 -3 -5 3 -12
-1 -15 -10 -3 -8 -10 -12 -16 -9 -5 3 -16 3 -22 -2 -7 -4 -22 -9 -33 -10 -10
-2 -22 -7 -25 -11 -5 -7 -27 -14 -47 -15 -7 0 -13 -4 -13 -9 0 -4 -5 -8 -11
-8 -13 0 -44 -14 -189 -83 -58 -27 -117 -58 -131 -68 -14 -10 -29 -16 -32 -12
-4 3 -9 -2 -13 -11 -3 -9 -13 -16 -21 -16 -8 0 -21 -6 -28 -12 -34 -30 -45
-38 -45 -32 0 4 -8 0 -18 -9 -10 -10 -22 -14 -25 -10 -4 3 -7 1 -7 -5 0 -6 -9
-14 -20 -17 -11 -4 -18 -11 -15 -16 6 -8 -8 -13 -27 -10 -4 0 -16 -11 -27 -26
-12 -14 -21 -20 -21 -13 0 7 -9 1 -21 -14 -11 -14 -26 -26 -34 -26 -7 0 -15
-7 -19 -15 -3 -8 -13 -15 -21 -15 -9 0 -13 -4 -10 -10 3 -6 2 -10 -4 -10 -6 0
-22 -11 -36 -25 -14 -14 -25 -22 -25 -18 0 4 -7 0 -15 -10 -7 -10 -28 -30 -46
-43 -18 -13 -30 -24 -26 -24 4 0 -9 -14 -29 -32 -60 -53 -94 -86 -94 -91 0 -3
-23 -28 -50 -56 -28 -28 -50 -54 -50 -57 0 -4 -11 -17 -26 -30 -14 -13 -22
-24 -19 -24 3 0 -6 -12 -20 -26 -14 -14 -23 -30 -19 -35 3 -5 0 -8 -7 -7 -6 2
-13 -2 -16 -9 -4 -12 54 -12 73 -1 5 3 38 7 74 9 36 2 70 5 75 8 6 3 28 6 50
7 22 1 72 5 110 9 87 9 164 15 235 18 31 2 61 6 68 11 7 4 12 2 12 -4 0 -7 6
-8 18 -1 13 7 23 6 30 -1 9 -9 12 -9 12 0 0 9 5 10 19 2 11 -6 22 -6 25 -1 8
12 466 11 466 -2 0 -6 5 -6 13 1 9 7 20 0 42 -28 17 -20 44 -48 62 -61 17 -13
30 -25 29 -27 -5 -4 287 -292 296 -292 4 0 8 -4 8 -9 0 -7 226 -236 295 -298
11 -11 13 -71 9 -330 -4 -378 -7 -433 -17 -433 -4 0 -3 -9 3 -20 7 -13 7 -20
1 -20 -7 0 -7 -9 -1 -24 5 -15 5 -26 0 -28 -6 -2 -12 -37 -15 -78 -3 -41 -8
-97 -11 -125 -2 -27 -6 -68 -7 -90 -2 -22 -5 -45 -8 -50 -3 -6 -7 -32 -8 -58
-2 -46 -2 -48 18 -36 11 7 17 17 14 23 -3 5 -1 6 4 3 6 -4 27 8 46 27 20 19
38 31 41 28 4 -3 6 0 6 6 0 7 7 12 16 12 8 0 12 5 9 10 -3 6 -2 10 4 10 11 0
266 248 266 259 0 3 9 15 20 27 41 43 90 107 88 115 -2 5 4 9 12 9 8 0 15 6
15 13 0 8 9 22 20 32 11 10 20 22 20 27 0 5 5 14 10 21 41 48 49 61 45 68 -3
4 4 10 15 14 11 3 19 9 19 13 -2 14 14 52 21 52 4 0 11 11 14 25 4 14 11 25
16 25 6 0 10 6 10 14 0 8 6 21 13 28 14 13 25 39 23 49 0 3 5 14 13 23 23 27
80 146 68 140 -7 -3 -4 1 5 9 10 8 15 17 11 20 -3 4 -1 7 5 7 7 0 11 3 11 8
-4 24 2 42 13 36 6 -4 8 -3 5 2 -3 6 3 28 13 51 10 23 16 44 12 47 -3 3 0 6 6
6 7 0 12 8 12 18 0 10 6 27 14 37 8 11 12 25 9 31 -2 7 0 15 6 18 6 4 8 13 4
21 -3 8 -1 15 5 15 6 0 13 18 17 40 4 22 10 40 15 40 5 0 7 8 5 18 -1 9 0 22
4 27 6 11 12 32 13 53 1 6 5 12 9 12 4 0 7 6 6 13 -1 36 4 57 13 52 6 -3 7 1
4 9 -3 9 -3 24 1 34 4 9 9 26 11 37 2 11 6 34 9 50 3 17 7 41 9 55 2 14 5 26
6 28 1 1 4 11 5 22 1 11 4 21 5 23 1 1 4 16 5 32 2 17 6 50 10 75 8 59 12 104
16 165 3 55 28 100 65 117 13 6 21 14 19 18 -3 4 5 10 16 13 12 3 18 10 14 17
-3 6 -3 9 2 8 4 -2 23 11 42 27 18 17 37 29 42 28 5 -2 9 4 9 12 0 8 4 15 8
15 5 0 27 17 50 38 23 20 54 48 69 61 58 49 147 127 179 158 19 17 34 30 34
28 0 -2 11 6 24 18 13 12 47 43 75 69 28 26 51 45 51 43 0 -2 16 11 35 31 19
19 35 33 35 31 0 -3 20 14 44 37 60 56 172 155 208 186 17 14 46 39 65 57 19
18 39 33 44 33 6 0 7 5 4 10 -3 6 -2 10 4 10 6 0 30 19 55 43 25 23 57 52 71
65 15 12 23 22 18 22 -4 0 6 9 22 19 41 26 125 107 125 120 0 6 3 10 8 10 17
-3 32 1 30 9 -3 10 70 81 77 74 3 -3 5 0 5 6 0 7 14 24 31 39 17 16 42 47 56
71 14 23 29 42 35 42 5 0 6 5 3 10 -3 6 -1 10 6 10 7 0 9 3 6 6 -3 4 -1 16 5
28 7 11 11 24 10 29 -1 4 3 7 8 7 6 0 10 7 10 15 0 8 5 15 12 15 6 0 8 3 5 7
-4 3 -1 16 6 27 14 22 32 75 29 89 -1 4 2 7 7 7 8 0 23 46 25 77 1 7 7 18 14
25 6 6 12 18 12 24 0 7 5 25 11 41 6 15 10 29 10 31 -1 1 5 18 14 38 8 19 14
38 13 42 -1 4 1 14 5 22 6 17 38 130 41 145 1 6 5 16 10 23 4 7 5 19 2 27 -3
8 -1 15 5 15 6 0 9 6 6 14 -3 8 -3 17 1 21 4 4 8 11 8 16 1 5 2 10 4 12 2 2 5
18 13 57 3 14 10 45 17 70 7 25 13 50 15 55 4 19 16 80 20 100 2 11 4 21 5 23
2 1 4 7 5 12 1 6 3 11 4 13 2 1 5 20 7 42 3 22 10 43 17 47 9 6 9 8 -1 8 -8 0
-10 5 -6 12 8 13 24 81 27 118 1 14 6 28 12 32 22 16 -11 25 -42 12z"/>
<path d="M2680 3412 c-52 -53 -98 -96 -102 -94 -5 1 -8 -3 -8 -9 0 -7 -11 -21
-25 -33 l-25 -21 45 -44 c25 -24 45 -48 45 -53 0 -5 5 -6 10 -3 6 3 10 -1 10
-10 0 -9 5 -13 10 -10 6 3 10 -1 10 -9 0 -9 4 -16 10 -16 5 0 20 -11 34 -25
14 -14 23 -25 20 -25 -3 0 1 -6 8 -14 7 -8 15 -13 18 -12 8 3 58 -53 52 -58
-3 -4 -1 -6 5 -6 12 0 133 -120 133 -132 0 -4 6 -8 14 -8 8 0 18 -9 21 -21 4
-11 9 -19 11 -16 4 4 75 -64 118 -113 26 -30 46 -36 46 -14 0 8 5 12 10 9 6
-3 10 1 10 10 0 9 5 13 10 10 6 -3 10 1 10 10 0 9 5 13 11 10 6 -4 13 2 16 14
3 11 8 19 12 17 6 -4 32 19 31 29 0 3 2 4 5 3 2 -2 16 12 30 31 14 19 25 31
25 27 0 -5 14 7 31 25 33 36 58 76 40 65 -6 -4 -11 -2 -11 4 0 6 -4 8 -10 5
-5 -3 -10 -2 -10 3 0 14 -41 57 -51 54 -5 -1 -9 2 -9 6 0 14 -41 57 -51 54 -5
-1 -9 2 -9 8 0 13 -43 56 -52 52 -5 -1 -8 3 -8 9 0 14 -61 75 -72 71 -4 -1 -8
4 -8 11 0 17 -36 47 -46 39 -4 -4 -4 -2 -1 4 7 12 -28 46 -37 37 -3 -4 -6 -1
-6 5 0 15 -45 62 -59 62 -7 0 -10 4 -7 8 3 5 -4 16 -15 25 -10 9 -19 13 -19 9
0 -4 -6 4 -13 18 -8 14 -19 24 -25 23 -7 -2 -12 2 -12 8 0 13 -55 69 -67 68
-4 0 -51 -44 -103 -97z"/>
<path d="M2586 2783 c-1 -1 -13 -5 -27 -7 -13 -2 -26 -5 -29 -6 -3 -1 -13 -1
-23 0 -10 1 -24 -3 -30 -8 -7 -6 -27 -12 -45 -15 -18 -3 -40 -11 -48 -17 -7
-7 -14 -10 -14 -7 0 6 -30 -6 -122 -46 -16 -7 -28 -16 -28 -20 0 -5 -3 -6 -7
-4 -5 3 -26 -6 -48 -19 -22 -13 -52 -29 -67 -35 -16 -6 -28 -14 -28 -18 0 -4
-16 -16 -35 -27 -19 -10 -35 -22 -35 -27 0 -4 -4 -5 -10 -2 -5 3 -10 -1 -10
-9 0 -9 -3 -16 -7 -16 -16 -1 -82 -67 -134 -135 -30 -38 -57 -71 -61 -73 -5
-2 -8 -8 -8 -13 0 -12 -96 -155 -122 -183 -10 -11 -18 -26 -18 -33 0 -8 -4
-11 -10 -8 -5 3 -10 2 -10 -3 0 -5 -10 -20 -22 -33 -13 -14 -25 -29 -28 -34
-3 -6 -8 -9 -12 -8 -5 2 -8 -4 -8 -13 0 -9 -9 -25 -21 -35 -11 -9 -20 -20 -20
-23 1 -3 -9 -17 -20 -30 -12 -13 -20 -26 -19 -28 2 -1 -13 -20 -31 -41 -19
-21 -33 -40 -31 -43 1 -2 -6 -12 -15 -22 -10 -10 -27 -31 -38 -46 -11 -16 -31
-41 -43 -57 -13 -16 -20 -29 -15 -29 4 0 3 -4 -2 -8 -6 -4 -23 -25 -40 -47
-16 -22 -35 -46 -42 -53 -7 -8 -10 -18 -7 -24 4 -7 2 -8 -4 -4 -7 4 -12 2 -12
-3 0 -6 0 -13 0 -16 0 -2 -14 -19 -30 -37 -17 -18 -33 -41 -36 -50 -3 -10 -10
-18 -15 -18 -5 0 -9 -5 -9 -11 0 -6 -7 -17 -15 -26 -8 -8 -13 -19 -10 -24 4
-5 -1 -9 -9 -9 -9 0 -16 -7 -16 -15 0 -8 -5 -15 -11 -15 -5 0 -7 -5 -4 -10 3
-6 2 -10 -2 -10 -10 0 -49 -62 -45 -72 1 -5 -2 -8 -7 -8 -5 0 -13 -9 -16 -20
-4 -11 -10 -18 -14 -16 -19 12 -5 -22 16 -37 12 -10 23 -13 23 -7 0 5 9 10 20
10 11 0 20 5 20 10 0 6 5 10 11 10 6 0 17 6 24 13 29 25 40 33 58 40 9 3 17
11 17 17 0 6 4 9 9 6 5 -3 24 8 42 24 19 16 40 30 47 30 6 0 12 5 12 10 0 6 7
10 15 10 8 0 15 4 15 10 0 5 16 17 35 26 19 9 35 20 35 25 0 5 7 9 15 9 8 0
15 4 15 9 0 5 9 13 20 16 11 4 17 11 14 17 -4 6 -2 8 4 4 6 -3 17 0 25 8 8 8
17 12 21 9 3 -4 6 -2 6 4 0 6 29 30 65 53 36 23 65 45 65 49 0 4 16 15 35 25
19 11 35 23 35 28 0 4 6 8 14 8 8 0 16 3 18 8 2 4 41 36 88 72 107 81 107 81
130 104 11 11 20 16 20 12 0 -4 11 4 24 18 13 15 28 26 35 26 6 0 11 5 11 10
0 6 7 10 15 10 8 0 15 5 15 10 0 6 7 10 15 10 8 0 15 4 15 10 0 5 16 17 35 26
19 9 35 20 35 25 0 5 7 9 15 9 8 0 15 5 15 11 0 5 5 7 10 4 6 -3 10 -1 10 5 0
5 16 18 35 27 19 9 32 20 29 25 -3 4 1 8 9 8 8 0 18 7 21 16 3 8 10 12 16 9 5
-3 10 -3 10 2 0 4 20 29 45 55 25 27 45 50 45 53 0 5 25 36 47 60 7 7 9 15 6
19 -4 3 -1 6 5 6 7 0 12 7 12 15 0 8 4 15 8 15 5 0 17 18 27 40 10 22 23 40
28 40 6 0 8 3 4 6 -3 4 5 26 18 49 13 24 21 46 18 49 -4 3 -2 6 3 6 5 0 10 10
11 22 1 11 7 24 13 28 6 4 10 11 9 16 -1 5 3 22 9 37 7 16 12 34 12 41 0 7 3
16 7 20 8 8 13 28 18 81 2 22 4 40 5 40 1 0 3 10 6 23 2 12 0 22 -5 22 -5 0
-12 9 -16 19 -5 16 -37 25 -49 14z"/>
</g>
</svg>
